<?xml version="1.0" standalone="no"?>
<!DOCTYPE svg PUBLIC "-//W3C//DTD SVG 20010904//EN"
 "http://www.w3.org/TR/2001/REC-SVG-20010904/DTD/svg10.dtd">
<svg version="1.0" xmlns="http://www.w3.org/2000/svg"
 width="3456.000000pt" height="1152.000000pt" viewBox="0 0 3456.000000 1152.000000"
 preserveAspectRatio="xMidYMid meet">
<metadata>
Created by potrace 1.15, written by Peter Selinger 2001-2017
</metadata>
<g transform="translate(0.000000,1152.000000) scale(0.100000,-0.100000)"
fill="#000000" stroke="none">
<path d="M7125 8828 c-183 -12 -357 -64 -580 -173 -318 -155 -573 -345 -919
-685 -258 -254 -432 -454 -664 -762 -642 -856 -1104 -1821 -1233 -2578 -26
-156 -36 -448 -20 -572 52 -389 232 -638 620 -857 788 -444 2507 -634 4041
-446 928 114 1618 347 1974 667 170 152 281 360 322 604 20 119 23 385 5 524
-130 1032 -916 2476 -1861 3420 -445 445 -907 741 -1285 826 -44 9 -85 24 -92
32 -12 14 -95 15 -308 0z m340 -462 c481 -143 1054 -627 1600 -1351 601 -797
1028 -1682 1162 -2405 25 -139 25 -489 0 -580 -45 -160 -125 -265 -280 -369
-396 -266 -1119 -446 -2097 -523 -223 -18 -1167 -18 -1385 0 -1079 87 -1828
296 -2148 601 -128 122 -174 241 -184 471 -30 741 567 2024 1416 3045 159 191
530 563 686 686 302 241 564 385 797 439 122 29 310 22 433 -14z"/>
<path d="M7075 7588 c-27 -5 -87 -27 -133 -48 -67 -32 -100 -55 -161 -117
-118 -119 -171 -245 -171 -408 0 -163 53 -289 171 -408 152 -153 350 -209 554
-157 140 36 258 118 338 237 135 200 135 456 0 656 -131 194 -365 290 -598
245z"/>
<path d="M5465 5196 c-169 -41 -322 -169 -395 -331 -98 -216 -52 -472 115
-641 76 -77 145 -120 245 -155 85 -29 237 -31 325 -5 201 60 351 210 411 411
21 71 24 227 5 295 -58 207 -224 371 -428 424 -71 19 -207 20 -278 2z"/>
<path d="M8645 5196 c-167 -41 -320 -166 -391 -320 -39 -87 -54 -152 -54 -246
0 -167 52 -292 170 -410 122 -123 243 -174 410 -174 268 0 489 168 566 429 21
73 23 209 5 285 -49 206 -221 381 -427 434 -72 19 -207 20 -279 2z"/>
<path d="M13530 8281 c-51 -16 -108 -51 -138 -85 -66 -76 -62 97 -62 -2431 0
-2541 -5 -2356 66 -2434 51 -57 121 -84 219 -85 70 -1 88 3 140 29 66 33 117
91 135 153 7 25 10 787 10 2348 l0 2312 -28 53 c-31 60 -101 120 -162 138 -42
12 -142 13 -180 2z"/>
<path d="M21429 8222 c-105 -35 -190 -116 -224 -213 -19 -52 -19 -181 -1 -241
31 -103 125 -191 240 -224 42 -12 85 -15 151 -12 79 3 101 8 158 36 136 67
206 192 194 349 -10 133 -81 234 -205 291 -77 35 -229 41 -313 14z"/>
<path d="M19267 7786 c-67 -18 -126 -63 -162 -121 l-30 -48 -3 -448 -3 -448
-277 -3 c-306 -3 -324 -7 -390 -71 -85 -82 -76 -271 15 -335 61 -42 88 -46
375 -50 l277 -4 4 -1016 c4 -1128 1 -1074 72 -1298 119 -371 392 -588 839
-664 171 -29 471 -47 539 -31 78 17 140 59 166 113 29 60 29 156 0 215 -41 85
-103 109 -341 129 -202 17 -302 39 -404 89 -175 86 -265 243 -294 515 -6 56
-10 476 -10 1022 l0 927 433 3 c478 4 470 3 537 70 44 43 60 86 60 155 0 71
-25 127 -73 170 -68 60 -96 63 -549 63 l-408 0 0 428 c0 263 -4 441 -10 464
-37 133 -212 217 -363 174z"/>
<path d="M16129 6785 c-532 -73 -945 -371 -1174 -848 -133 -276 -188 -547
-188 -922 0 -291 28 -486 103 -717 222 -676 782 -1068 1527 -1068 700 0 1235
347 1486 965 95 233 137 448 144 746 11 407 -49 706 -201 1014 -82 167 -166
285 -291 410 -233 235 -544 378 -915 424 -113 15 -372 12 -491 -4z m391 -465
c351 -37 603 -208 763 -518 58 -111 101 -240 128 -386 30 -157 38 -529 15
-706 -60 -456 -243 -757 -549 -905 -301 -145 -732 -133 -1019 28 -274 153
-441 451 -499 892 -18 135 -15 478 5 610 43 285 122 479 265 658 198 245 524
365 891 327z"/>
<path d="M24405 6785 c-192 -31 -407 -114 -555 -215 -124 -84 -254 -223 -334
-356 l-36 -59 0 206 c0 231 -7 269 -66 337 -54 64 -112 87 -214 86 -55 -1 -98
-7 -123 -18 -57 -25 -112 -80 -138 -139 l-24 -52 0 -1555 c0 -1213 3 -1564 12
-1596 21 -67 65 -119 130 -150 51 -25 68 -28 148 -28 132 1 207 42 256 142
l24 47 6 1010 c6 1050 5 1035 50 1188 94 320 346 566 665 647 230 59 513 49
694 -24 169 -69 296 -219 353 -416 51 -178 51 -159 57 -1325 l5 -1090 22 -41
c51 -96 133 -139 263 -139 97 1 156 23 209 80 75 81 71 21 71 1201 0 645 -4
1092 -10 1155 -62 626 -344 975 -880 1090 -128 27 -453 35 -585 14z"/>
<path d="M28088 6785 c-692 -95 -1179 -569 -1323 -1289 -95 -478 -39 -1025
145 -1410 131 -275 379 -536 635 -668 239 -123 445 -175 735 -185 330 -11 595
43 853 174 435 222 715 622 817 1168 134 723 -74 1462 -520 1851 -175 151
-407 270 -636 325 -205 49 -495 63 -706 34z m501 -481 c405 -83 675 -383 771
-853 45 -221 51 -565 15 -796 -79 -508 -336 -827 -743 -921 -109 -25 -272 -35
-395 -24 -333 31 -578 174 -736 432 -122 198 -187 455 -198 788 -17 508 98
884 346 1130 149 148 335 234 560 260 98 11 285 3 380 -16z"/>
<path d="M21477 6776 c-91 -25 -164 -94 -187 -175 -6 -23 -10 -579 -10 -1591
1 -1671 -2 -1587 51 -1666 38 -55 131 -96 221 -98 40 0 94 5 120 13 58 16 121
69 151 125 l22 41 3 1565 c3 1719 6 1625 -58 1702 -64 77 -204 115 -313 84z"/>
</g>
</svg>
